<svg width="44" height="43" viewBox="0 0 44 43" fill="none" xmlns="http://www.w3.org/2000/svg">
<path d="M36.5 39.1471C36.5 40.4466 35.3807 41.5 34 41.5C32.6193 41.5 31.5 40.4466 31.5 39.1471C31.5 37.8476 32.6193 36.7941 34 36.7941C35.3807 36.7941 36.5 37.8476 36.5 39.1471Z" fill="#FFEFD2"/>
<path d="M16.5 39.1471C16.5 40.4466 15.3807 41.5 14 41.5C12.6193 41.5 11.5 40.4466 11.5 39.1471C11.5 37.8476 12.6193 36.7941 14 36.7941C15.3807 36.7941 16.5 37.8476 16.5 39.1471Z" fill="#FFEFD2"/>
<path d="M1.5 0C0.671573 0 0 0.671573 0 1.5C0 2.32843 0.671573 3 1.5 3V1.5V0ZM9 1.5L10.4497 1.11492L10.1536 0H9V1.5ZM11.5 10.9118L10.0503 11.2968L10.3464 12.4118H11.5V10.9118ZM16.5 12.4118C17.3284 12.4118 18 11.7402 18 10.9118C18 10.0833 17.3284 9.41176 16.5 9.41176V10.9118V12.4118ZM6.5 32.0882L5.08606 31.5875C4.92344 32.0466 4.9939 32.5561 5.27502 32.9539C5.55614 33.3517 6.0129 33.5882 6.5 33.5882V32.0882ZM9 25.0294V23.5294C8.36463 23.5294 7.79818 23.9297 7.58606 24.5286L9 25.0294ZM11.5 25.0294L10.023 25.291L10.2423 26.5294H11.5V25.0294ZM34 25.0294V26.5294H34.9017L35.3247 25.7331L34 25.0294ZM9 10.9118V9.41176H7.21104L7.52298 11.1733L9 10.9118ZM41.5 10.9118L42.8247 11.6155L43.9954 9.41176H41.5V10.9118ZM1.5 1.5V3H9V1.5V0H1.5V1.5ZM9 1.5L7.55027 1.88508L10.0503 11.2968L11.5 10.9118L12.9497 10.5267L10.4497 1.11492L9 1.5ZM11.5 10.9118V12.4118H16.5V10.9118V9.41176H11.5V10.9118ZM36.5 32.0882V30.5882H6.5V32.0882V33.5882H36.5V32.0882ZM6.5 32.0882L7.91394 32.589L10.4139 25.5302L9 25.0294L7.58606 24.5286L5.08606 31.5875L6.5 32.0882ZM9 25.0294V26.5294H26.5V25.0294V23.5294H9V25.0294ZM11.5 25.0294V26.5294H34V25.0294V23.5294H11.5V25.0294ZM11.5 25.0294L12.977 24.7679L10.477 10.6502L9 10.9118L7.52298 11.1733L10.023 25.291L11.5 25.0294ZM9 10.9118V12.4118H41.5V10.9118V9.41176H9V10.9118ZM41.5 10.9118L40.1753 10.208L32.6753 24.3257L34 25.0294L35.3247 25.7331L42.8247 11.6155L41.5 10.9118ZM36.5 39.1471H35C35 39.5338 34.6393 40 34 40V41.5V43C36.1222 43 38 41.3594 38 39.1471H36.5ZM34 41.5V40C33.3607 40 33 39.5338 33 39.1471H31.5H30C30 41.3594 31.8778 43 34 43V41.5ZM31.5 39.1471H33C33 38.7604 33.3607 38.2941 34 38.2941V36.7941V35.2941C31.8778 35.2941 30 36.9348 30 39.1471H31.5ZM34 36.7941V38.2941C34.6393 38.2941 35 38.7604 35 39.1471H36.5H38C38 36.9348 36.1222 35.2941 34 35.2941V36.7941ZM16.5 39.1471H15C15 39.5338 14.6393 40 14 40V41.5V43C16.1222 43 18 41.3594 18 39.1471H16.5ZM14 41.5V40C13.3607 40 13 39.5338 13 39.1471H11.5H10C10 41.3594 11.8778 43 14 43V41.5ZM11.5 39.1471H13C13 38.7604 13.3607 38.2941 14 38.2941V36.7941V35.2941C11.8778 35.2941 10 36.9348 10 39.1471H11.5ZM14 36.7941V38.2941C14.6393 38.2941 15 38.7604 15 39.1471H16.5H18C18 36.9348 16.1222 35.2941 14 35.2941V36.7941Z" fill="#FFEFD2"/>
</svg>
